<?xml version="1.0" encoding="utf-8"?><svg viewBox="0 0 41 36" xmlns="http://www.w3.org/2000/svg" xmlns:xlink="http://www.w3.org/1999/xlink"><style>:root>svg{display:none}:root>svg:target{display:block}</style><svg fill="none" viewBox="0 0 22 22" id="arrow-catalog" xmlns="http://www.w3.org/2000/svg"><path d="M9.625 7.563L13.063 11l-3.438 3.438" stroke="#A65CF0" stroke-width="2" stroke-linecap="round" stroke-linejoin="round"/><circle cx="11" cy="11" r="10" stroke="#A65CF0" stroke-width="2"/></svg><svg fill="none" viewBox="0 0 16 15" id="asterisk" xmlns="http://www.w3.org/2000/svg"><path d="M15.226 5.282l-4.717-.684L8.4.33a.597.597 0 00-1.066 0L5.225 4.598.51 5.282a.594.594 0 00-.33 1.013l3.413 3.321-.806 4.69a.592.592 0 00.862.625l4.22-2.214 4.218 2.214a.593.593 0 00.862-.625l-.806-4.69 3.413-3.321a.592.592 0 00-.33-1.013z" fill="#FF862F"/></svg><svg fill="none" viewBox="0 0 14 14" id="data" xmlns="http://www.w3.org/2000/svg"><path d="M11.667 1.75h-.584V.583H9.917V1.75H4.083V.583H2.917V1.75h-.584a1.17 1.17 0 00-1.166 1.167v9.333a1.17 1.17 0 001.166 1.167h9.334a1.17 1.17 0 001.166-1.167V2.917a1.17 1.17 0 00-1.166-1.167zm0 10.5H2.333V4.667h9.334v7.583z" fill="#999"/></svg><svg viewBox="0 0 36 36" id="fb" xmlns="http://www.w3.org/2000/svg"><path fill="transparent" d="M0 0h36v36H0z"/><path d="M18 3C9.75 3 3 9.762 3 18.09 3 25.62 8.49 31.87 15.66 33V22.458h-3.81V18.09h3.81v-3.328c0-3.78 2.235-5.858 5.67-5.858 1.635 0 3.345.286 3.345.286v3.72h-1.89c-1.86 0-2.445 1.16-2.445 2.349v2.831h4.17l-.675 4.368H20.34V33a14.985 14.985 0 009.075-5.105A15.097 15.097 0 0033 18.09C33 9.762 26.25 3 18 3z"/></svg><svg viewBox="0 0 36 36" id="instagram" xmlns="http://www.w3.org/2000/svg"><path fill="transparent" d="M0 0h36v36H0z"/><path d="M15.129 18a2.871 2.871 0 105.742 0 2.871 2.871 0 00-5.742 0z"/><path d="M11.286 12.92c.138-.374.358-.713.644-.99.278-.286.616-.507.99-.645.304-.117.76-.258 1.6-.296.908-.042 1.18-.05 3.48-.05s2.573.008 3.48.05c.84.038 1.297.178 1.6.296.374.138.713.359.99.645.286.277.506.616.645.99.118.303.258.76.296 1.6.042.908.05 1.18.05 3.48s-.008 2.572-.05 3.48c-.038.84-.178 1.296-.296 1.6a2.67 2.67 0 01-.645.99 2.667 2.667 0 01-.99.645c-.303.118-.76.258-1.6.296-.907.042-1.18.05-3.48.05s-2.572-.008-3.48-.05c-.84-.038-1.296-.178-1.6-.296a2.852 2.852 0 01-1.634-1.635c-.118-.304-.259-.76-.297-1.6-.042-.908-.05-1.18-.05-3.48s.008-2.572.05-3.48c.038-.84.178-1.296.297-1.6zM18 22.423a4.423 4.423 0 100-8.846 4.423 4.423 0 000 8.846zm-4.598-7.987a1.034 1.034 0 100-2.068 1.034 1.034 0 000 2.068z"/><path d="M18 3c8.283 0 15 6.717 15 15 0 8.283-6.717 15-15 15-8.283 0-15-6.717-15-15C3 9.717 9.717 3 18 3zM9.439 21.551c.041.917.187 1.543.4 2.09a4.404 4.404 0 002.52 2.52c.547.213 1.173.358 2.09.4.918.042 1.212.052 3.55.052 2.34 0 2.633-.01 3.552-.052.917-.042 1.543-.187 2.09-.4a4.22 4.22 0 001.526-.994c.438-.43.777-.95.994-1.525.213-.548.358-1.174.4-2.09.042-.92.052-1.213.052-3.552 0-2.34-.01-2.633-.052-3.551-.041-.917-.187-1.543-.4-2.09a4.218 4.218 0 00-.994-1.526 4.218 4.218 0 00-1.525-.994c-.548-.213-1.174-.358-2.09-.4-.92-.042-1.213-.052-3.552-.052-2.34 0-2.633.01-3.551.052-.917.042-1.543.187-2.09.4a4.223 4.223 0 00-1.527.994c-.438.43-.777.95-.993 1.525-.213.548-.359 1.174-.4 2.09-.042.92-.052 1.213-.052 3.552 0 2.34.01 2.633.052 3.551z"/></svg><svg viewBox="0 0 26 28" id="personal" xmlns="http://www.w3.org/2000/svg"><path d="M24.98 22.85a13.17 13.17 0 00-2.787-4.203 12.977 12.977 0 00-4.131-2.835l-.042-.018a8.752 8.752 0 003.554-7.07C21.574 3.904 17.737 0 13 0S4.426 3.905 4.426 8.724c0 2.909 1.4 5.487 3.554 7.073-.014.008-.028.011-.042.018a12.864 12.864 0 00-4.131 2.835 13.227 13.227 0 00-2.787 4.204A13.269 13.269 0 000 27.712a.286.286 0 00.079.203.276.276 0 00.198.085H2.35a.278.278 0 00.277-.274 10.576 10.576 0 013.035-7.187c1.96-1.994 4.564-3.092 7.337-3.092 2.773 0 5.376 1.098 7.337 3.092a10.576 10.576 0 013.035 7.187.276.276 0 00.277.274h2.074a.273.273 0 00.198-.085.282.282 0 00.079-.203 13.302 13.302 0 00-1.02-4.862zM13 14.774c-1.587 0-3.08-.63-4.204-1.773a6.064 6.064 0 01-1.743-4.277c0-1.615.62-3.135 1.743-4.278A5.857 5.857 0 0113 2.673c1.587 0 3.08.63 4.204 1.773a6.064 6.064 0 011.743 4.278A6.064 6.064 0 0117.204 13 5.857 5.857 0 0113 14.774z"/></svg><svg viewBox="0 0 20 20" id="phone" xmlns="http://www.w3.org/2000/svg"><path d="M16.675 12.817a9.536 9.536 0 01-2.942-.467.814.814 0 00-.841.2l-1.309 1.642c-2.358-1.125-4.566-3.25-5.741-5.692l1.625-1.383a.85.85 0 00.2-.85A9.294 9.294 0 017.2 3.325a.832.832 0 00-.825-.825H3.492c-.45 0-.992.2-.992.825C2.5 11.067 8.942 17.5 16.675 17.5c.592 0 .825-.525.825-.983v-2.875a.832.832 0 00-.825-.825z"/></svg><svg fill="none" viewBox="0 0 20 20" id="search" xmlns="http://www.w3.org/2000/svg"><path d="M17.819 16.063l-3.212-2.747a6.968 6.968 0 001.456-4.285c0-1.88-.734-3.642-2.06-4.97A6.98 6.98 0 009.03 2a6.99 6.99 0 00-4.97 2.06A6.975 6.975 0 002 9.031c0 1.878.734 3.645 2.06 4.971a6.975 6.975 0 004.971 2.06c1.57 0 3.061-.51 4.282-1.453l3.212 2.745a.193.193 0 00.272 0l1.022-1.02a.195.195 0 00.056-.136.193.193 0 00-.056-.136zm-5.075-3.32a5.222 5.222 0 01-3.713 1.538 5.222 5.222 0 01-3.712-1.537A5.222 5.222 0 013.78 9.03c0-1.401.546-2.72 1.538-3.712A5.222 5.222 0 019.03 3.78c1.402 0 2.721.544 3.713 1.538A5.222 5.222 0 0114.28 9.03a5.218 5.218 0 01-1.537 3.713z" fill="#999"/></svg><svg fill="none" viewBox="0 0 32 32" id="search-arrow" xmlns="http://www.w3.org/2000/svg"><path d="M14 11l5 5-5 5" stroke="#A65CF0" stroke-width="2" stroke-linecap="round" stroke-linejoin="round"/><circle cx="16" cy="16" r="15" stroke="#A65CF0" stroke-width="2"/></svg><svg viewBox="0 0 41 28" id="shoppingCart" xmlns="http://www.w3.org/2000/svg"><path d="M39.816 19.85H19.902l1-2.114 16.613-.03c.562 0 1.044-.417 1.144-.994l2.3-13.366a1.24 1.24 0 00-.25-.986 1.177 1.177 0 00-.399-.318 1.135 1.135 0 00-.49-.116l-21.135-.073-.18-.881C18.39.41 17.901 0 17.346 0H12.18c-.313 0-.613.13-.834.359a1.25 1.25 0 00-.346.866c0 .325.124.637.346.867.221.23.521.358.835.358h4.21l.789 3.895 1.943 9.764-2.502 4.238a1.252 1.252 0 00-.1 1.277c.2.413.605.673 1.053.673h2.1a3.645 3.645 0 00-.688 2.142c0 1.964 1.538 3.561 3.43 3.561 1.894 0 3.432-1.597 3.432-3.561 0-.774-.248-1.527-.689-2.142h5.387a3.645 3.645 0 00-.689 2.142c0 1.964 1.539 3.561 3.431 3.561 1.893 0 3.431-1.597 3.431-3.561 0-.774-.247-1.527-.688-2.142h3.788c.65 0 1.181-.548 1.181-1.225a1.253 1.253 0 00-.35-.864 1.163 1.163 0 00-.834-.358zM19.176 4.27l19.256.065-1.886 10.961-15.126.028L19.176 4.27zm3.24 21.266c-.581 0-1.056-.493-1.056-1.097s.475-1.097 1.057-1.097 1.056.493 1.056 1.097c0 .29-.11.57-.309.775a1.037 1.037 0 01-.747.322zm10.872 0c-.581 0-1.056-.493-1.056-1.097s.475-1.097 1.056-1.097c.582 0 1.057.493 1.057 1.097 0 .29-.111.57-.31.775a1.038 1.038 0 01-.746.322z"/><ellipse cx="7" cy="12.5" rx="7" ry="7.5" fill="#FF862F"/><path d="M9.495 12.43c0 1.247-.205 2.17-.615 2.77-.407.598-1.035.898-1.885.898-.823 0-1.445-.31-1.865-.928-.417-.619-.625-1.532-.625-2.74 0-1.26.203-2.187.61-2.783.407-.598 1.034-.898 1.88-.898.824 0 1.445.313 1.865.938.424.625.635 1.54.635 2.744zm-3.491 0c0 .876.075 1.505.225 1.885.153.378.408.567.766.567.352 0 .606-.192.762-.576.156-.384.234-1.01.234-1.875 0-.876-.08-1.504-.239-1.885-.156-.384-.409-.576-.757-.576-.355 0-.609.192-.762.576-.153.38-.23 1.009-.23 1.885z" fill="#fff"/></svg><svg viewBox="0 0 36 36" id="vk" xmlns="http://www.w3.org/2000/svg"><path fill="transparent" d="M0 0h36v36H0z"/><path d="M18 3C9.716 3 3 9.716 3 18c0 8.284 6.716 15 15 15 8.284 0 15-6.716 15-15 0-8.284-6.716-15-15-15zm7.609 16.622c.699.683 1.439 1.326 2.066 2.08.278.333.54.677.74 1.065.285.553.027 1.159-.467 1.192l-3.073-.001c-.794.066-1.426-.255-1.958-.797-.425-.433-.82-.894-1.229-1.342a2.871 2.871 0 00-.553-.492c-.42-.272-.783-.189-1.023.249-.245.445-.3.939-.324 1.434-.033.725-.252.914-.979.948-1.554.073-3.028-.163-4.398-.946-1.208-.69-2.144-1.666-2.959-2.77-1.587-2.152-2.803-4.514-3.895-6.944-.246-.547-.066-.84.538-.85a85.496 85.496 0 013.008-.002c.409.007.679.24.836.625.542 1.334 1.206 2.603 2.039 3.78.222.313.448.625.77.846.357.245.628.164.796-.233.107-.253.154-.523.177-.794.08-.927.09-1.854-.049-2.777-.086-.578-.41-.951-.987-1.06-.293-.056-.25-.165-.108-.332.248-.29.48-.47.944-.47h3.472c.547.107.67.353.744.904l.003 3.859c-.006.213.107.845.49.985.307.101.51-.145.693-.34.833-.883 1.426-1.926 1.957-3.005.235-.476.437-.969.634-1.462.146-.365.373-.545.785-.539l3.343.004c.099 0 .199.001.296.018.564.097.718.339.544.889-.275.863-.808 1.583-1.329 2.304-.558.772-1.154 1.517-1.707 2.293-.508.709-.468 1.066.163 1.681z"/></svg><svg fill="none" viewBox="0 0 20 20" id="x" xmlns="http://www.w3.org/2000/svg"><path fill-rule="evenodd" clip-rule="evenodd" d="M2.381.398l8.877 8.642c.545.53.545 1.39 0 1.92l-8.877 8.642c-.545.53-1.428.53-1.972 0a1.333 1.333 0 010-1.92L8.299 10 .41 2.318a1.333 1.333 0 010-1.92 1.422 1.422 0 011.972 0z" fill="#999"/><path fill-rule="evenodd" clip-rule="evenodd" d="M17.619.398L8.742 9.04a1.333 1.333 0 000 1.92l8.877 8.642c.544.53 1.428.53 1.972 0 .545-.53.545-1.39 0-1.92L11.701 10l7.89-7.682c.545-.53.545-1.39 0-1.92a1.422 1.422 0 00-1.972 0z" fill="#999"/></svg></svg>