<!-- В Галпе у svg(to-sprite->svg) удаляем fill и ставим его здесь -->
<svg width="36" height="36" viewbox="0 0 36 36" xmlns="http://www.w3.org/2000/svg">
  <rect width="36" height="36" fill="transparent"/>
  <path d="M18 3C9.74999 3 3 9.76205 3 18.0904C3 25.6205 8.48999 31.8705 15.66 33V22.4578H11.85V18.0904H15.66V14.762C15.66 10.9819 17.895 8.90361 21.33 8.90361C22.965 8.90361 24.675 9.18976 24.675 9.18976V12.9096H22.785C20.925 12.9096 20.34 14.0693 20.34 15.259V18.0904H24.51L23.835 22.4578H20.34V33C23.8746 32.4395 27.0933 30.6288 29.4149 27.8947C31.7364 25.1606 33.008 21.6832 33 18.0904C33 9.76205 26.25 3 18 3Z"/>
</svg>
