<!-- В Галпе у svg(to-sprite->svg) удаляем fill и ставим его здесь -->
<svg width="36" height="36" viewbox="0 0 36 36" xmlns="http://www.w3.org/2000/svg">
  <rect width="36" height="36" fill="transparent"/>
  <path d="M15.1289 18.0001C15.1289 19.5858 16.4143 20.8712 18 20.8712C19.5857 20.8712 20.8711 19.5858 20.8711 18.0001C20.8711 16.4144 19.5857 15.129 18 15.129C16.4143 15.129 15.1289 16.4144 15.1289 18.0001Z" />
  <path d="M11.2856 12.92C11.4236 12.546 11.6438 12.2075 11.9299 11.9297C12.2077 11.6436 12.546 11.4234 12.9203 11.2854C13.2238 11.1675 13.6797 11.0272 14.5195 10.989C15.4279 10.9475 15.7003 10.9386 18.0001 10.9386C20.3001 10.9386 20.5725 10.9473 21.4807 10.9887C22.3204 11.0272 22.7766 11.1675 23.0799 11.2854C23.4541 11.4234 23.7926 11.6436 24.0702 11.9297C24.3563 12.2075 24.5765 12.5458 24.7148 12.92C24.8326 13.2235 24.9729 13.6797 25.0112 14.5195C25.0526 15.4277 25.0615 15.7 25.0615 18.0001C25.0615 20.2999 25.0526 20.5722 25.0112 21.4807C24.9729 22.3204 24.8326 22.7764 24.7148 23.0799C24.5765 23.4541 24.3566 23.7924 24.0705 24.0702C23.7926 24.3563 23.4543 24.5765 23.0801 24.7145C22.7766 24.8326 22.3204 24.9729 21.4807 25.0112C20.5725 25.0526 20.3003 25.0613 18.0003 25.0613C15.7 25.0613 15.4277 25.0526 14.5197 25.0112C13.6799 24.9729 13.2238 24.8326 12.9203 24.7145C12.1691 24.4248 11.5753 23.8311 11.2856 23.0799C11.1677 22.7764 11.0274 22.3204 10.989 21.4807C10.9475 20.5722 10.9388 20.2999 10.9388 18.0001C10.9388 15.7 10.9475 15.4277 10.989 14.5195C11.0272 13.6797 11.1675 13.2235 11.2856 12.92V12.92ZM18.0001 22.4227C20.4429 22.4227 22.4232 20.4427 22.4232 17.9998C22.4232 15.557 20.4429 13.5769 18.0001 13.5769C15.5574 13.5769 13.5771 15.557 13.5771 17.9998C13.5771 20.4427 15.5574 22.4227 18.0001 22.4227ZM13.4023 14.4357C13.9731 14.4357 14.4359 13.9729 14.4359 13.4021C14.4359 12.8312 13.9731 12.3684 13.4023 12.3684C12.8315 12.3684 12.3687 12.8312 12.3687 13.4021C12.3689 13.9729 12.8315 14.4357 13.4023 14.4357Z" />
  <path d="M18 3C26.283 3 33 9.717 33 18C33 26.283 26.283 33 18 33C9.717 33 3 26.283 3 18C3 9.717 9.717 3 18 3ZM9.43867 21.5511C9.48033 22.468 9.62613 23.094 9.83899 23.6419C10.2865 24.7989 11.2011 25.7135 12.3581 26.161C12.9058 26.3739 13.532 26.5194 14.4487 26.5613C15.3672 26.6032 15.6606 26.6133 17.9998 26.6133C20.3392 26.6133 20.6324 26.6032 21.5511 26.5613C22.4678 26.5194 23.094 26.3739 23.6417 26.161C24.2167 25.9447 24.7371 25.6057 25.1674 25.1674C25.6055 24.7374 25.9445 24.2167 26.1608 23.6419C26.3736 23.0942 26.5194 22.468 26.5611 21.5513C26.6034 20.6326 26.6133 20.3392 26.6133 18C26.6133 15.6608 26.6034 15.3674 26.5613 14.4489C26.5197 13.532 26.3741 12.906 26.1612 12.3581C25.9449 11.7833 25.6057 11.2626 25.1674 10.8326C24.7374 10.3943 24.2167 10.0553 23.6419 9.83899C23.094 9.62613 22.468 9.48056 21.5511 9.43867C20.6326 9.39679 20.3392 9.38672 18 9.38672C15.6608 9.38672 15.3674 9.39679 14.4489 9.4389C13.532 9.48056 12.906 9.62613 12.3581 9.83876C11.7833 10.0551 11.2626 10.3943 10.8323 10.8326C10.3943 11.2629 10.0551 11.7833 9.83899 12.3581C9.6259 12.906 9.48033 13.532 9.43845 14.4489C9.39656 15.3674 9.38672 15.6608 9.38672 18C9.38672 20.3392 9.39656 20.6326 9.43867 21.5511Z" />
</svg>
