<svg width="36" height="36" viewbox="0 0 36 36" xmlns="http://www.w3.org/2000/svg">
  <rect width="36" height="36" fill="transparent"/>
  <path d="M18 3C9.71601 3 3 9.7157 3 18C3 26.2843 9.71601 33 18 33C26.284 33 33 26.2843 33 18C33 9.7157 26.284 3 18 3ZM25.6088 19.6223C26.3079 20.3052 27.0476 20.9478 27.6752 21.7013C27.9532 22.0346 28.2153 22.3792 28.4148 22.7669C28.6996 23.3196 28.4425 23.9257 27.9477 23.9586L24.8747 23.958C24.081 24.0236 23.4494 23.7035 22.9169 23.1609C22.4919 22.7285 22.0975 22.2666 21.6881 21.8194C21.5208 21.6359 21.3447 21.4631 21.1347 21.3272C20.7158 21.0546 20.3518 21.1381 20.1118 21.5758C19.8672 22.0211 19.8114 22.5146 19.788 23.0102C19.7546 23.7348 19.5361 23.9242 18.809 23.9583C17.2554 24.031 15.7814 23.7953 14.4114 23.0121C13.2028 22.3212 12.2673 21.3462 11.4522 20.2422C9.86486 18.0902 8.64921 15.7283 7.55693 13.2985C7.3111 12.7513 7.49095 12.4585 8.09463 12.4472C9.0976 12.4278 10.1006 12.4303 11.1035 12.4462C11.5117 12.4527 11.7818 12.6862 11.9386 13.0714C12.4806 14.4049 13.1451 15.6737 13.9777 16.8503C14.1996 17.1637 14.4261 17.4761 14.7486 17.6974C15.1047 17.9417 15.376 17.861 15.5438 17.4635C15.6513 17.2109 15.6976 16.9409 15.7209 16.6702C15.8007 15.743 15.8102 14.8162 15.6721 13.8927C15.5862 13.3148 15.2612 12.9416 14.6851 12.8323C14.3917 12.7768 14.4347 12.6681 14.5774 12.5006C14.8251 12.2108 15.0571 12.0316 15.5208 12.0316L18.9928 12.031C19.5401 12.1384 19.6628 12.3839 19.7371 12.9351L19.7402 16.7936C19.7337 17.0069 19.8473 17.6391 20.2303 17.7787C20.5372 17.88 20.7397 17.6339 20.9233 17.4396C21.7559 16.556 22.3492 15.5131 22.8804 14.4338C23.1149 13.9577 23.3171 13.4652 23.5136 12.9717C23.6596 12.6068 23.8868 12.4272 24.2986 12.4333L27.642 12.4373C27.7406 12.4373 27.8406 12.4383 27.9382 12.4551C28.5017 12.5515 28.6561 12.794 28.4817 13.3436C28.2074 14.2073 27.6743 14.9266 27.1531 15.6479C26.5946 16.4201 25.9989 17.1652 25.4458 17.9408C24.9376 18.6497 24.9778 19.0066 25.6088 19.6223Z" />
</svg>
